<svg width="132" height="20" viewBox="0 0 132 20" fill="none" xmlns="http://www.w3.org/2000/svg">
<path d="M0.279297 19V15.6104L10.0547 3.53711H1.38379V0.388672H15.0059V3.30859L4.81152 15.8643H15.3994V19H0.279297ZM25.5684 14.709L29.123 15.3057C28.666 16.609 27.9424 17.6035 26.9521 18.2891C25.9704 18.9661 24.7389 19.3047 23.2578 19.3047C20.9134 19.3047 19.1784 18.5387 18.0527 17.0068C17.1641 15.7796 16.7197 14.2308 16.7197 12.3604C16.7197 10.126 17.3037 8.37826 18.4717 7.11719C19.6396 5.84766 21.1165 5.21289 22.9023 5.21289C24.9082 5.21289 26.4909 5.87728 27.6504 7.20605C28.8099 8.52637 29.3643 10.5534 29.3135 13.2871H20.376C20.4014 14.3451 20.6891 15.1702 21.2393 15.7627C21.7894 16.3467 22.4749 16.6387 23.2959 16.6387C23.8545 16.6387 24.3242 16.4863 24.7051 16.1816C25.0859 15.877 25.3737 15.3861 25.5684 14.709ZM25.7715 11.1035C25.7461 10.071 25.4795 9.28809 24.9717 8.75488C24.4639 8.21322 23.846 7.94238 23.1182 7.94238C22.3395 7.94238 21.6963 8.22591 21.1885 8.79297C20.6807 9.36003 20.431 10.1302 20.4395 11.1035H25.7715ZM35.6484 19H32.0811V5.51758H35.3945V7.43457C35.9616 6.52897 36.4694 5.93229 36.918 5.64453C37.375 5.35677 37.8913 5.21289 38.4668 5.21289C39.2793 5.21289 40.0622 5.43717 40.8154 5.88574L39.7109 8.99609C39.11 8.60677 38.5514 8.41211 38.0352 8.41211C37.5358 8.41211 37.1126 8.55176 36.7656 8.83105C36.4186 9.10189 36.1436 9.59701 35.9404 10.3164C35.7458 11.0358 35.6484 12.5423 35.6484 14.8359V19ZM41.5391 12.0684C41.5391 10.8835 41.8311 9.73665 42.415 8.62793C42.999 7.51921 43.8242 6.67285 44.8906 6.08887C45.9655 5.50488 47.1631 5.21289 48.4834 5.21289C50.5231 5.21289 52.1947 5.87728 53.498 7.20605C54.8014 8.52637 55.4531 10.1979 55.4531 12.2207C55.4531 14.2604 54.793 15.9531 53.4727 17.2988C52.1608 18.6361 50.5062 19.3047 48.5088 19.3047C47.2731 19.3047 46.0924 19.0254 44.9668 18.4668C43.8496 17.9082 42.999 17.0915 42.415 16.0166C41.8311 14.9333 41.5391 13.6172 41.5391 12.0684ZM45.1953 12.2588C45.1953 13.596 45.5127 14.6201 46.1475 15.3311C46.7822 16.042 47.5651 16.3975 48.4961 16.3975C49.4271 16.3975 50.2057 16.042 50.832 15.3311C51.4668 14.6201 51.7842 13.5876 51.7842 12.2334C51.7842 10.9131 51.4668 9.89746 50.832 9.18652C50.2057 8.47559 49.4271 8.12012 48.4961 8.12012C47.5651 8.12012 46.7822 8.47559 46.1475 9.18652C45.5127 9.89746 45.1953 10.9215 45.1953 12.2588ZM60.9248 19L56.4814 0.388672H60.3281L63.1338 13.1729L66.5361 0.388672H71.0049L74.2676 13.3887L77.124 0.388672H80.9072L76.3877 19H72.4014L68.6943 5.08594L65 19H60.9248ZM84.5127 9.63086L81.2754 9.04688C81.6393 7.74349 82.2656 6.77865 83.1543 6.15234C84.043 5.52604 85.3633 5.21289 87.1152 5.21289C88.7064 5.21289 89.8913 5.40332 90.6699 5.78418C91.4486 6.15658 91.9945 6.63477 92.3076 7.21875C92.6292 7.79427 92.79 8.85645 92.79 10.4053L92.752 14.5693C92.752 15.7542 92.807 16.6302 92.917 17.1973C93.0355 17.7559 93.2513 18.3568 93.5645 19H90.0352C89.9421 18.763 89.8278 18.4118 89.6924 17.9463C89.6331 17.7347 89.5908 17.5951 89.5654 17.5273C88.9561 18.1198 88.3044 18.5641 87.6104 18.8604C86.9163 19.1566 86.1758 19.3047 85.3887 19.3047C84.0007 19.3047 82.9046 18.9281 82.1006 18.1748C81.305 17.4215 80.9072 16.4694 80.9072 15.3184C80.9072 14.5566 81.0892 13.8796 81.4531 13.2871C81.8171 12.6862 82.3249 12.2292 82.9766 11.916C83.6367 11.5944 84.5846 11.3151 85.8203 11.0781C87.4876 10.765 88.6429 10.473 89.2861 10.2021V9.84668C89.2861 9.16113 89.1169 8.67448 88.7783 8.38672C88.4398 8.09049 87.8008 7.94238 86.8613 7.94238C86.2266 7.94238 85.7314 8.06934 85.376 8.32324C85.0205 8.56868 84.7327 9.00456 84.5127 9.63086ZM89.2861 12.5254C88.8291 12.6777 88.1055 12.8597 87.1152 13.0713C86.125 13.2829 85.4775 13.4902 85.1729 13.6934C84.7074 14.0234 84.4746 14.4424 84.4746 14.9502C84.4746 15.4495 84.6608 15.8812 85.0332 16.2451C85.4056 16.609 85.8796 16.791 86.4551 16.791C87.0983 16.791 87.7119 16.5794 88.2959 16.1562C88.7275 15.8346 89.0111 15.4411 89.1465 14.9756C89.2396 14.6709 89.2861 14.0911 89.2861 13.2363V12.5254ZM95.0625 15.1533L98.6426 14.6074C98.7949 15.3014 99.1038 15.8304 99.5693 16.1943C100.035 16.5498 100.687 16.7275 101.524 16.7275C102.447 16.7275 103.141 16.5583 103.606 16.2197C103.92 15.9827 104.076 15.6654 104.076 15.2676C104.076 14.9967 103.992 14.7725 103.822 14.5947C103.645 14.4255 103.247 14.2689 102.629 14.125C99.7513 13.4902 97.9274 12.9105 97.1572 12.3857C96.0908 11.6579 95.5576 10.6465 95.5576 9.35156C95.5576 8.18359 96.0189 7.20182 96.9414 6.40625C97.8639 5.61068 99.2943 5.21289 101.232 5.21289C103.077 5.21289 104.449 5.51335 105.346 6.11426C106.243 6.71517 106.861 7.60384 107.199 8.78027L103.835 9.40234C103.691 8.8776 103.416 8.47559 103.01 8.19629C102.612 7.91699 102.041 7.77734 101.296 7.77734C100.356 7.77734 99.6836 7.90853 99.2773 8.1709C99.0065 8.3571 98.8711 8.59831 98.8711 8.89453C98.8711 9.14844 98.9896 9.36426 99.2266 9.54199C99.5482 9.77897 100.657 10.1133 102.553 10.5449C104.457 10.9766 105.786 11.5055 106.539 12.1318C107.284 12.7666 107.656 13.651 107.656 14.7852C107.656 16.0208 107.14 17.083 106.107 17.9717C105.075 18.8604 103.547 19.3047 101.524 19.3047C99.6878 19.3047 98.2321 18.9323 97.1572 18.1875C96.0908 17.4427 95.3926 16.4313 95.0625 15.1533ZM116.975 5.51758V8.36133H114.537V13.7949C114.537 14.8952 114.558 15.5384 114.601 15.7246C114.651 15.9023 114.757 16.0505 114.918 16.1689C115.087 16.2874 115.29 16.3467 115.527 16.3467C115.857 16.3467 116.336 16.2324 116.962 16.0039L117.267 18.7715C116.437 19.127 115.498 19.3047 114.448 19.3047C113.805 19.3047 113.225 19.1989 112.709 18.9873C112.193 18.7673 111.812 18.488 111.566 18.1494C111.329 17.8024 111.164 17.3369 111.071 16.7529C110.995 16.3382 110.957 15.5003 110.957 14.2393V8.36133H109.319V5.51758H110.957V2.83887L114.537 0.756836V5.51758H116.975ZM127.258 14.709L130.812 15.3057C130.355 16.609 129.632 17.6035 128.642 18.2891C127.66 18.9661 126.428 19.3047 124.947 19.3047C122.603 19.3047 120.868 18.5387 119.742 17.0068C118.854 15.7796 118.409 14.2308 118.409 12.3604C118.409 10.126 118.993 8.37826 120.161 7.11719C121.329 5.84766 122.806 5.21289 124.592 5.21289C126.598 5.21289 128.18 5.87728 129.34 7.20605C130.499 8.52637 131.054 10.5534 131.003 13.2871H122.065C122.091 14.3451 122.379 15.1702 122.929 15.7627C123.479 16.3467 124.164 16.6387 124.985 16.6387C125.544 16.6387 126.014 16.4863 126.395 16.1816C126.775 15.877 127.063 15.3861 127.258 14.709ZM127.461 11.1035C127.436 10.071 127.169 9.28809 126.661 8.75488C126.153 8.21322 125.535 7.94238 124.808 7.94238C124.029 7.94238 123.386 8.22591 122.878 8.79297C122.37 9.36003 122.12 10.1302 122.129 11.1035H127.461Z" fill="white"/>
</svg>
